<?xml version="1.0" encoding="utf-8"?>
<!-- Generator: Adobe Illustrator 27.5.0, SVG Export Plug-In . SVG Version: 6.00 Build 0)  -->
<svg version="1.1" xmlns="http://www.w3.org/2000/svg" xmlns:xlink="http://www.w3.org/1999/xlink" x="0px" y="0px"
	 viewBox="0 0 500 500" style="enable-background:new 0 0 500 500;" xml:space="preserve">
<g id="BACKGROUND">
	<rect x="0" style="fill:#FFFFFF;" width="500" height="500"/>
</g>
<g id="OBJECTS">
	
		<ellipse transform="matrix(0.7071 -0.7071 0.7071 0.7071 -75.259 239.8297)" style="fill:#F15513;" cx="251.871" cy="210.76" rx="100.853" ry="100.854"/>
	<g>
		<path style="fill:#FFFFFF;" d="M291.292,140.85c-5.208,5.683-8.273,7.113-15.974,7.449c5.683,5.208,7.113,8.273,7.449,15.974
			c5.208-5.683,8.273-7.113,15.974-7.449C293.057,151.616,291.628,148.551,291.292,140.85z"/>
		<path style="fill:#FFFFFF;" d="M268.982,122.866c-0.907,4.09-1.961,5.596-5.494,7.847c4.09,0.907,5.596,1.961,7.847,5.494
			c0.907-4.09,1.961-5.596,5.494-7.847C272.739,127.454,271.233,126.399,268.982,122.866z"/>
	</g>
	<g>
		<defs>
			<path id="SVGID_1_" d="M349.886,187.002c-13.122-54.132-67.642-87.378-121.774-74.256c-17.787,4.312-33.318,13.093-45.69,24.861
				l-21.772,3.839c-8.816,1.554-14.702,9.961-13.148,18.777l5.439,30.847c-2.786,13.951-2.657,28.713,0.915,43.449
				c13.122,54.132,67.642,87.378,121.774,74.256C329.762,295.654,363.007,241.134,349.886,187.002z"/>
		</defs>
		<clipPath id="SVGID_00000149364639195556942130000014052407843745529776_">
			<use xlink:href="#SVGID_1_"  style="overflow:visible;"/>
		</clipPath>
		<g style="clip-path:url(#SVGID_00000149364639195556942130000014052407843745529776_);">
			<path style="fill:#07293E;" d="M277.165,330.58l-81.968,14.453c-8.092,1.427-15.809-3.976-17.236-12.069l-30.69-174.052
				c-1.427-8.092,3.976-15.809,12.069-17.236l81.968-14.453c8.092-1.427,15.809,3.976,17.236,12.069l30.69,174.052
				C290.66,321.437,285.257,329.153,277.165,330.58z"/>
			<path style="fill:#FFFFFF;" d="M216.212,145.835l-26.926,4.748c-1.514,0.267-2.959-0.744-3.226-2.258l0,0
				c-0.267-1.514,0.744-2.959,2.259-3.226l26.926-4.748c1.514-0.267,2.958,0.744,3.225,2.259l0,0
				C218.738,144.124,217.726,145.568,216.212,145.835z"/>
			
				<rect x="169.558" y="154.966" transform="matrix(0.9848 -0.1736 0.1736 0.9848 -37.7316 41.5298)" style="fill:#FFFFFF;" width="97.84" height="162.872"/>
		</g>
	</g>
	<g>
		<g>
			<path style="fill:#35B3F1;" d="M315.358,300.428l-90.856-16.02c-7.262-1.28-12.11-8.205-10.83-15.467l10.17-57.676
				c1.28-7.262,8.205-12.11,15.467-10.83l90.856,16.02c7.262,1.28,12.11,8.205,10.83,15.467l-10.17,57.676
				C329.544,296.86,322.62,301.708,315.358,300.428z"/>
			<path style="fill:#07293E;" d="M306.573,227.041L306.573,227.041c-1.593-0.281-2.657-1.8-2.376-3.393l2.6-14.745
				c2.015-11.426-4.826-22.936-16.092-25.71c-12.355-3.042-24.548,5.051-26.722,17.379l-2.733,15.502
				c-0.281,1.593-1.8,2.657-3.393,2.376l0,0c-1.593-0.281-2.657-1.8-2.376-3.393l2.593-14.705
				c2.5-14.178,15.19-24.737,29.539-23.577c16.466,1.332,27.888,16.498,25.086,32.386l-2.733,15.502
				C309.685,226.258,308.166,227.322,306.573,227.041z"/>
		</g>
		<path style="fill:#FFFFFF;" d="M294.827,176.231l-1.562,20.302c-0.19,2.466,1.864,4.52,4.33,4.331l20.3-1.56
			c0.96-0.074,1.862-0.489,2.543-1.169l20.752-20.75c1.575-1.575,1.575-4.129,0-5.704l-18.742-18.742
			c-1.575-1.575-4.129-1.575-5.704,0l-20.749,20.75C295.315,174.369,294.9,175.271,294.827,176.231z M304.947,185.191
			c2.221,0,4.031,1.809,4.031,4.035c0,2.228-1.809,4.035-4.031,4.035c-2.227,0-4.036-1.807-4.036-4.035
			C300.911,187,302.72,185.191,304.947,185.191z"/>
		<path style="fill:#07293E;" d="M306.471,227.306L306.471,227.306c-1.587-0.28-2.647-1.794-2.368-3.381l2.591-14.693
			c2.008-11.386-4.809-22.856-16.035-25.62c-12.312-3.031-24.462,5.034-26.628,17.319l-2.724,15.448
			c-0.28,1.587-1.794,2.648-3.381,2.368l0,0c-1.587-0.28-2.647-1.794-2.367-3.381l2.584-14.653
			c2.491-14.128,15.137-24.65,29.436-23.494c16.408,1.327,27.79,16.44,24.999,32.273l-2.724,15.448
			C309.572,226.526,308.058,227.586,306.471,227.306z"/>
		<path style="fill:#FFFFFF;" d="M315.753,199.82l-1.054-8.75l-5.832-4.234l-0.681,0.553c0.126,0.188,0.232,0.39,0.325,0.599
			c0.03,0.067,0.054,0.137,0.081,0.206c0.061,0.159,0.112,0.322,0.152,0.49c0.017,0.071,0.036,0.141,0.049,0.213
			c0.044,0.237,0.074,0.478,0.074,0.728c0,2.221-1.803,4.021-4.016,4.021c-0.25,0-0.491-0.03-0.728-0.073
			c-0.079-0.015-0.155-0.036-0.233-0.055c-0.154-0.038-0.305-0.084-0.452-0.14c-0.086-0.033-0.171-0.065-0.254-0.103
			c-0.143-0.066-0.278-0.142-0.411-0.223c-0.067-0.041-0.138-0.074-0.202-0.119c0,0,0,0,0,0l1.433,5.863l-0.244,1.947
			L315.753,199.82z"/>
	</g>
</g>
<g id="TEXTS">
	<g>
		
			<text transform="matrix(1.0008 0 0 1 138.5957 362.2754)" style="fill:#35B3F1; font-family:'Montserrat-ExtraBold'; font-size:39.8969px;">COMPANY</text>
	</g>
	
		<text transform="matrix(1.0008 0 0 1 196.7095 389.667)" style="fill:#F15513; font-family:'Montserrat-Medium'; font-size:21.7106px; letter-spacing:0.999;">TAGLINE</text>
</g>
</svg>
