<?xml version="1.0" encoding="utf-8"?>
<!-- Generator: Adobe Illustrator 27.5.0, SVG Export Plug-In . SVG Version: 6.00 Build 0)  -->
<svg version="1.1" xmlns="http://www.w3.org/2000/svg" xmlns:xlink="http://www.w3.org/1999/xlink" x="0px" y="0px"
	 viewBox="0 0 500 500" style="enable-background:new 0 0 500 500;" xml:space="preserve">
<g id="BACKGROUND">
	<rect x="0" style="fill:#FFFFFF;" width="500" height="500"/>
</g>
<g id="OBJECTS">
	<g>
		<path style="fill:#FB611F;" d="M305.21,224.746H194.802v-64.26c0-8.217,6.661-14.878,14.878-14.878h80.651
			c8.217,0,14.878,6.661,14.878,14.878V224.746z"/>
		<path style="fill:#07293E;" d="M272.962,152.887L272.962,152.887c-1.501,0-2.718-1.217-2.718-2.719v-13.896
			c0-10.768-8.107-20.186-18.852-20.905c-11.783-0.789-21.623,8.573-21.623,20.192v14.61c0,1.501-1.217,2.719-2.718,2.719l0,0
			c-1.501,0-2.718-1.217-2.718-2.719V136.31c0-13.362,9.897-25.058,23.2-26.31c15.265-1.437,28.149,10.585,28.149,25.558v14.61
			C275.68,151.67,274.463,152.887,272.962,152.887z"/>
	</g>
	<g>
		<defs>
			<polygon id="SVGID_1_" points="181.5,236.632 228.136,186.818 273.955,233.455 314.864,186.818 314.864,320.486 181.5,320.486 
							"/>
		</defs>
		<clipPath id="SVGID_00000183966301525412660770000007747956693999615166_">
			<use xlink:href="#SVGID_1_"  style="overflow:visible;"/>
		</clipPath>
		<g style="clip-path:url(#SVGID_00000183966301525412660770000007747956693999615166_);">
			<path style="fill:#07293E;" d="M290.319,311.637H209.68c-8.217,0-14.878-6.661-14.878-14.878V124.762
				c0-8.217,6.661-14.878,14.878-14.878h80.639c8.217,0,14.878,6.661,14.878,14.878v171.997
				C305.198,304.976,298.537,311.637,290.319,311.637z"/>
			<path style="fill:#FFFFFF;" d="M263.357,123.534h-26.713c-1.502,0-2.72-1.218-2.72-2.72l0,0c0-1.502,1.218-2.72,2.72-2.72h26.713
				c1.502,0,2.72,1.218,2.72,2.72l0,0C266.077,122.316,264.859,123.534,263.357,123.534z"/>
			<rect x="202.374" y="131.495" style="fill:#FFFFFF;" width="95.594" height="159.133"/>
		</g>
		<path style="clip-path:url(#SVGID_00000183966301525412660770000007747956693999615166_);fill:#FB611F;" d="M254.72,299.378
			l-2.966-2.966c-0.969-0.969-2.54-0.969-3.509,0l-2.966,2.966c-0.969,0.969-0.969,2.54,0,3.509l2.966,2.966
			c0.969,0.969,2.54,0.969,3.509,0l2.966-2.966C255.689,301.918,255.689,300.347,254.72,299.378z"/>
	</g>
	<g>
		<path style="fill:#FFFFFF;" d="M184.158,249.833c-4.775,0-9.299-2.079-12.413-5.703c-3.111-3.623-4.479-8.433-3.752-13.199
			c1.03-6.744,6.232-12.167,12.945-13.495c1.066-0.211,2.149-0.318,3.22-0.318c1.119,0,2.238,0.116,3.333,0.346l24.812-25.438
			c-0.328-1.302-0.494-2.638-0.494-3.98c0-9.02,7.338-16.357,16.357-16.357c0.565,0,1.14,0.029,1.706,0.087
			c7.176,0.734,13.09,6.203,14.381,13.299c0.416,2.285,0.354,4.567-0.185,6.789c5.929,6.169,16.658,17.322,24.706,25.623
			c1.073-0.243,2.237-0.369,3.401-0.369c1.153,0,2.306,0.124,3.43,0.367c7.987-8.218,18.743-19.369,24.695-25.547
			c-0.55-2.226-0.622-4.513-0.214-6.804c1.216-6.841,6.632-12.163,13.479-13.24c0.869-0.136,1.75-0.206,2.619-0.206
			c4.772,0,9.295,2.077,12.407,5.698c3.111,3.62,4.481,8.427,3.758,13.19c-1.03,6.789-6.271,12.225-13.04,13.526
			c-1.034,0.199-2.086,0.3-3.125,0.3c-1.164,0-2.326-0.126-3.463-0.375c-3.618,3.755-7.892,8.187-12.175,12.62
			c-4.394,4.547-8.787,9.086-12.495,12.9c0.319,1.283,0.48,2.601,0.48,3.926c0,9.02-7.337,16.357-16.356,16.357
			c-0.587,0-1.184-0.032-1.771-0.094c-7.203-0.765-13.1-6.279-14.338-13.409c-0.399-2.292-0.319-4.579,0.237-6.802
			c-3.692-3.808-8.066-8.337-12.439-12.875c-4.284-4.445-8.556-8.887-12.169-12.646c-1.106,0.261-2.316,0.397-3.529,0.397
			c-1.135,0-2.269-0.119-3.375-0.355l-24.781,25.406c0.567,2.223,0.657,4.512,0.267,6.812c-1.165,6.873-6.56,12.237-13.424,13.349
			C185.959,249.759,185.053,249.833,184.158,249.833z"/>
		<path style="fill:#35B3F1;" d="M305.01,186.011c-0.308,1.731-0.212,3.4,0.2,4.941c0.393,1.468,0.065,3.03-0.989,4.124
			c-8.919,9.257-18.547,19.225-25.353,26.226c-1.06,1.09-2.614,1.474-4.093,1.121c-0.834-0.199-1.703-0.305-2.599-0.305
			c-0.89,0-1.753,0.105-2.582,0.301c-1.48,0.35-3.034-0.034-4.093-1.126c-6.809-7.021-16.443-17.021-25.354-26.295
			c-1.046-1.088-1.375-2.639-0.991-4.099c0.404-1.538,0.494-3.202,0.179-4.93c-0.891-4.897-5.019-8.713-9.971-9.22
			c-6.81-0.697-12.554,4.629-12.554,11.296c0,1.075,0.152,2.114,0.433,3.098c0.418,1.461-0.055,3.035-1.117,4.123l-25.406,26.047
			c-1.04,1.066-2.562,1.436-4.012,1.097c-1.504-0.351-3.122-0.403-4.799-0.071c-4.611,0.912-8.263,4.699-8.972,9.345
			c-1.176,7.706,5.401,14.242,13.118,12.993c4.708-0.762,8.497-4.545,9.294-9.247c0.294-1.737,0.187-3.412-0.239-4.956
			c-0.409-1.486-0.079-3.076,0.997-4.179l25.425-26.067c1.057-1.084,2.604-1.467,4.078-1.122c0.821,0.193,1.677,0.295,2.557,0.295
			c0.925,0,1.822-0.113,2.68-0.325c1.494-0.368,3.067,0.02,4.133,1.129c3.678,3.828,8.076,8.4,12.486,12.975
			c4.498,4.667,8.995,9.325,12.752,13.197c1.066,1.1,1.393,2.673,0.992,4.152c-0.417,1.541-0.518,3.21-0.216,4.943
			c0.855,4.917,4.977,8.766,9.94,9.292c6.83,0.726,12.6-4.609,12.6-11.291c0-1.037-0.142-2.041-0.405-2.994
			c-0.4-1.452-0.039-2.999,1.011-4.079c3.772-3.879,8.293-8.549,12.813-13.227c4.431-4.586,8.852-9.171,12.546-13.005
			c1.039-1.079,2.571-1.443,4.026-1.088c1.515,0.37,3.148,0.437,4.843,0.111c4.642-0.892,8.331-4.694,9.041-9.367
			c1.167-7.684-5.374-14.201-13.065-12.992C309.642,177.573,305.842,181.326,305.01,186.011z"/>
	</g>
</g>
<g id="TEXTS">
	<g>
		<g>
			
				<text transform="matrix(1.0008 0 0 1 138.5957 362.2754)" style="fill:#07293E; font-family:'Montserrat-ExtraBold'; font-size:39.8969px;">COMPANY</text>
		</g>
		<g>
			
				<text transform="matrix(1.0008 0 0 1 196.7095 389.667)" style="fill:#35B3F1; font-family:'Montserrat-Medium'; font-size:21.7106px; letter-spacing:0.999;">TAGLINE</text>
		</g>
	</g>
</g>
</svg>
